<svg width="220" height="220" viewBox="0 0 220 220" fill="none" xmlns="http://www.w3.org/2000/svg">
<circle cx="110" cy="110" r="110" fill="#003366"/>
<mask id="path-2-outside-1_12_19" maskUnits="userSpaceOnUse" x="63" y="82" width="45" height="58" fill="black">
<rect fill="white" x="63" y="82" width="45" height="58"/>
<path d="M76.64 108.2H103.52V118.6H76.64V108.2ZM77.6 139H64.64V83H106.96V93.4H77.6V139Z"/>
</mask>
<path d="M76.64 108.2H103.52V118.6H76.64V108.2ZM77.6 139H64.64V83H106.96V93.4H77.6V139Z" fill="#00BFAE"/>
<path d="M76.64 108.2V107.2H75.64V108.2H76.64ZM103.52 108.2H104.52V107.2H103.52V108.2ZM103.52 118.6V119.6H104.52V118.6H103.52ZM76.64 118.6H75.64V119.6H76.64V118.6ZM77.6 139V140H78.6V139H77.6ZM64.64 139H63.64V140H64.64V139ZM64.64 83V82H63.64V83H64.64ZM106.96 83H107.96V82H106.96V83ZM106.96 93.4V94.4H107.96V93.4H106.96ZM77.6 93.4V92.4H76.6V93.4H77.6ZM76.64 109.2H103.52V107.2H76.64V109.2ZM102.52 108.2V118.6H104.52V108.2H102.52ZM103.52 117.6H76.64V119.6H103.52V117.6ZM77.64 118.6V108.2H75.64V118.6H77.64ZM77.6 138H64.64V140H77.6V138ZM65.64 139V83H63.64V139H65.64ZM64.64 84H106.96V82H64.64V84ZM105.96 83V93.4H107.96V83H105.96ZM106.96 92.4H77.6V94.4H106.96V92.4ZM76.6 93.4V139H78.6V93.4H76.6Z" fill="#003366" mask="url(#path-2-outside-1_12_19)"/>
<mask id="path-4-outside-2_12_19" maskUnits="userSpaceOnUse" x="102" y="82" width="54" height="58" fill="black">
<rect fill="white" x="102" y="82" width="54" height="58"/>
<path d="M142.04 83H155V139H142.04V83ZM116.6 139H103.64V83H116.6V139ZM143 116.04H115.64V105.08H143V116.04Z"/>
</mask>
<path d="M142.04 83H155V139H142.04V83ZM116.6 139H103.64V83H116.6V139ZM143 116.04H115.64V105.08H143V116.04Z" fill="#00BFAE"/>
<path d="M142.04 83V82H141.04V83H142.04ZM155 83H156V82H155V83ZM155 139V140H156V139H155ZM142.04 139H141.04V140H142.04V139ZM116.6 139V140H117.6V139H116.6ZM103.64 139H102.64V140H103.64V139ZM103.64 83V82H102.64V83H103.64ZM116.6 83H117.6V82H116.6V83ZM143 116.04V117.04H144V116.04H143ZM115.64 116.04H114.64V117.04H115.64V116.04ZM115.64 105.08V104.08H114.64V105.08H115.64ZM143 105.08H144V104.08H143V105.08ZM142.04 84H155V82H142.04V84ZM154 83V139H156V83H154ZM155 138H142.04V140H155V138ZM143.04 139V83H141.04V139H143.04ZM116.6 138H103.64V140H116.6V138ZM104.64 139V83H102.64V139H104.64ZM103.64 84H116.6V82H103.64V84ZM115.6 83V139H117.6V83H115.6ZM143 115.04H115.64V117.04H143V115.04ZM116.64 116.04V105.08H114.64V116.04H116.64ZM115.64 106.08H143V104.08H115.64V106.08ZM142 105.08V116.04H144V105.08H142Z" fill="#003366" mask="url(#path-4-outside-2_12_19)"/>
</svg>
